<mxfile host="65bd71144e">
    <diagram id="7kBjBb1W4u3lIeofRROi" name="Page-1">
        <mxGraphModel dx="2383" dy="2558" grid="1" gridSize="10" guides="1" tooltips="1" connect="1" arrows="1" fold="1" page="1" pageScale="1" pageWidth="850" pageHeight="1100" math="0" shadow="0">
            <root>
                <mxCell id="0"/>
                <mxCell id="1" parent="0"/>
                <mxCell id="65" value="" style="rounded=0;whiteSpace=wrap;html=1;" vertex="1" parent="1">
                    <mxGeometry x="10" y="-60" width="1750" height="1160" as="geometry"/>
                </mxCell>
                <mxCell id="66" value="&lt;h1&gt;Related To {Topic}&lt;/h1&gt;" style="text;html=1;strokeColor=none;fillColor=none;align=center;verticalAlign=middle;whiteSpace=wrap;rounded=0;" vertex="1" parent="1">
                    <mxGeometry x="50" y="50" width="220" height="30" as="geometry"/>
                </mxCell>
                <mxCell id="67" value="&lt;h1&gt;Related To {Topic}&lt;/h1&gt;" style="text;html=1;strokeColor=none;fillColor=none;align=center;verticalAlign=middle;whiteSpace=wrap;rounded=0;" vertex="1" parent="1">
                    <mxGeometry x="50" y="560" width="220" height="30" as="geometry"/>
                </mxCell>
                <mxCell id="68" value="" style="rounded=1;whiteSpace=wrap;html=1;shadow=1;" vertex="1" parent="1">
                    <mxGeometry x="50" y="90" width="290" height="190" as="geometry"/>
                </mxCell>
                <mxCell id="69" value="" style="rounded=1;whiteSpace=wrap;html=1;shadow=1;" vertex="1" parent="1">
                    <mxGeometry x="50" y="610" width="290" height="190" as="geometry"/>
                </mxCell>
                <mxCell id="70" value="" style="rounded=1;whiteSpace=wrap;html=1;shadow=1;" vertex="1" parent="1">
                    <mxGeometry x="360" y="610" width="290" height="190" as="geometry"/>
                </mxCell>
                <mxCell id="71" value="" style="rounded=1;whiteSpace=wrap;html=1;shadow=1;" vertex="1" parent="1">
                    <mxGeometry x="360" y="90" width="290" height="190" as="geometry"/>
                </mxCell>
                <mxCell id="72" value="" style="rounded=1;whiteSpace=wrap;html=1;shadow=1;" vertex="1" parent="1">
                    <mxGeometry x="670" y="90" width="290" height="190" as="geometry"/>
                </mxCell>
                <mxCell id="73" value="" style="rounded=1;whiteSpace=wrap;html=1;shadow=1;" vertex="1" parent="1">
                    <mxGeometry x="980" y="90" width="290" height="190" as="geometry"/>
                </mxCell>
                <mxCell id="74" value="" style="rounded=1;whiteSpace=wrap;html=1;shadow=1;" vertex="1" parent="1">
                    <mxGeometry x="1290" y="90" width="290" height="190" as="geometry"/>
                </mxCell>
                <mxCell id="75" value="" style="rounded=1;whiteSpace=wrap;html=1;shadow=1;" vertex="1" parent="1">
                    <mxGeometry x="670" y="610" width="290" height="190" as="geometry"/>
                </mxCell>
                <mxCell id="76" value="" style="rounded=1;whiteSpace=wrap;html=1;shadow=1;" vertex="1" parent="1">
                    <mxGeometry x="980" y="610" width="290" height="190" as="geometry"/>
                </mxCell>
                <mxCell id="77" value="" style="rounded=1;whiteSpace=wrap;html=1;shadow=1;" vertex="1" parent="1">
                    <mxGeometry x="1290" y="610" width="290" height="190" as="geometry"/>
                </mxCell>
                <mxCell id="78" value="" style="rounded=1;whiteSpace=wrap;html=1;shadow=1;" vertex="1" parent="1">
                    <mxGeometry x="50" y="300" width="290" height="190" as="geometry"/>
                </mxCell>
                <mxCell id="79" value="" style="rounded=1;whiteSpace=wrap;html=1;shadow=1;" vertex="1" parent="1">
                    <mxGeometry x="360" y="300" width="290" height="190" as="geometry"/>
                </mxCell>
                <mxCell id="80" value="" style="rounded=1;whiteSpace=wrap;html=1;shadow=1;" vertex="1" parent="1">
                    <mxGeometry x="670" y="300" width="290" height="190" as="geometry"/>
                </mxCell>
                <mxCell id="81" value="" style="rounded=1;whiteSpace=wrap;html=1;shadow=1;" vertex="1" parent="1">
                    <mxGeometry x="980" y="300" width="290" height="190" as="geometry"/>
                </mxCell>
                <mxCell id="82" value="" style="rounded=1;whiteSpace=wrap;html=1;shadow=1;" vertex="1" parent="1">
                    <mxGeometry x="1290" y="300" width="290" height="190" as="geometry"/>
                </mxCell>
                <mxCell id="83" value="" style="rounded=1;whiteSpace=wrap;html=1;shadow=1;" vertex="1" parent="1">
                    <mxGeometry x="50" y="840" width="290" height="190" as="geometry"/>
                </mxCell>
                <mxCell id="84" value="" style="rounded=1;whiteSpace=wrap;html=1;shadow=1;" vertex="1" parent="1">
                    <mxGeometry x="360" y="840" width="290" height="190" as="geometry"/>
                </mxCell>
                <mxCell id="85" value="" style="rounded=1;whiteSpace=wrap;html=1;shadow=1;" vertex="1" parent="1">
                    <mxGeometry x="670" y="840" width="290" height="190" as="geometry"/>
                </mxCell>
                <mxCell id="86" value="" style="rounded=1;whiteSpace=wrap;html=1;shadow=1;" vertex="1" parent="1">
                    <mxGeometry x="980" y="840" width="290" height="190" as="geometry"/>
                </mxCell>
                <mxCell id="87" value="" style="rounded=1;whiteSpace=wrap;html=1;shadow=1;" vertex="1" parent="1">
                    <mxGeometry x="1290" y="840" width="290" height="190" as="geometry"/>
                </mxCell>
                <mxCell id="88" value="&lt;h1&gt;&lt;font style=&quot;font-size: 40px;&quot;&gt;Überprüfe innerhalb dem Titel und der Beschreibung nach Shorts. Shorts sind verboten.&lt;/font&gt;&lt;/h1&gt;" style="text;html=1;strokeColor=none;fillColor=none;align=center;verticalAlign=middle;whiteSpace=wrap;rounded=0;" vertex="1" parent="1">
                    <mxGeometry x="2015" y="-85" width="970" height="30" as="geometry"/>
                </mxCell>
                <mxCell id="89" value="&lt;h1&gt;&lt;font style=&quot;font-size: 100px;&quot;&gt;Feed&lt;/font&gt;&lt;/h1&gt;" style="text;html=1;strokeColor=none;fillColor=none;align=center;verticalAlign=middle;whiteSpace=wrap;rounded=0;" vertex="1" parent="1">
                    <mxGeometry x="600" y="-190" width="460" height="80" as="geometry"/>
                </mxCell>
                <mxCell id="90" value="&lt;h2&gt;{Goal}&lt;/h2&gt;" style="html=1;shadow=1;dashed=0;shape=mxgraph.bootstrap.rrect;rSize=5;strokeColor=none;strokeWidth=1;fillColor=#0085FC;fontColor=#FFFFFF;whiteSpace=wrap;align=center;verticalAlign=middle;spacingLeft=0;fontStyle=0;fontSize=16;spacing=5;gradientColor=none;" vertex="1" parent="1">
                    <mxGeometry x="50" y="-40" width="147" height="70" as="geometry"/>
                </mxCell>
                <mxCell id="91" value="&lt;h2&gt;{Goal}&lt;/h2&gt;" style="html=1;shadow=1;dashed=0;shape=mxgraph.bootstrap.rrect;rSize=5;strokeColor=none;strokeWidth=1;fillColor=#0085FC;fontColor=#FFFFFF;whiteSpace=wrap;align=center;verticalAlign=middle;spacingLeft=0;fontStyle=0;fontSize=16;spacing=5;" vertex="1" parent="1">
                    <mxGeometry x="240" y="-40" width="147" height="70" as="geometry"/>
                </mxCell>
                <mxCell id="92" value="&lt;h2&gt;{Goal}&lt;/h2&gt;" style="html=1;shadow=1;dashed=0;shape=mxgraph.bootstrap.rrect;rSize=5;strokeColor=none;strokeWidth=1;fillColor=#0085FC;fontColor=#FFFFFF;whiteSpace=wrap;align=center;verticalAlign=middle;spacingLeft=0;fontStyle=0;fontSize=16;spacing=5;" vertex="1" parent="1">
                    <mxGeometry x="430" y="-40" width="147" height="70" as="geometry"/>
                </mxCell>
                <mxCell id="93" value="&lt;h2&gt;{Goal}&lt;/h2&gt;" style="html=1;shadow=1;dashed=0;shape=mxgraph.bootstrap.rrect;rSize=5;strokeColor=none;strokeWidth=1;fillColor=#0085FC;fontColor=#FFFFFF;whiteSpace=wrap;align=center;verticalAlign=middle;spacingLeft=0;fontStyle=0;fontSize=16;spacing=5;" vertex="1" parent="1">
                    <mxGeometry x="620" y="-40" width="147" height="70" as="geometry"/>
                </mxCell>
                <mxCell id="94" value="&lt;h2&gt;{Goal}&lt;/h2&gt;" style="html=1;shadow=1;dashed=0;shape=mxgraph.bootstrap.rrect;rSize=5;strokeColor=none;strokeWidth=1;fillColor=#0085FC;fontColor=#FFFFFF;whiteSpace=wrap;align=center;verticalAlign=middle;spacingLeft=0;fontStyle=0;fontSize=16;spacing=5;" vertex="1" parent="1">
                    <mxGeometry x="811.5" y="-40" width="147" height="70" as="geometry"/>
                </mxCell>
                <mxCell id="95" value="&lt;h2&gt;{Goal}&lt;/h2&gt;" style="html=1;shadow=1;dashed=0;shape=mxgraph.bootstrap.rrect;rSize=5;strokeColor=none;strokeWidth=1;fillColor=#0085FC;fontColor=#FFFFFF;whiteSpace=wrap;align=center;verticalAlign=middle;spacingLeft=0;fontStyle=0;fontSize=16;spacing=5;" vertex="1" parent="1">
                    <mxGeometry x="1000" y="-40" width="147" height="70" as="geometry"/>
                </mxCell>
                <mxCell id="96" value="" style="shape=stencil(rVldcxs3DPw1esWQIAmSz2n6PzITp9bUtTOO0zb/PnvVkBJxunU70zdbAnQkPnYXuFP68O3x09eHk4Zvb68vvz/8df789nhKv5xUz8+PD6/nN/x1Sh9P6cOXl9eH315fvj9/vvz/9dNmuf31x8uf2y/8ffGrEuPmpOHH5YMmVv754NeL+dP5+ca8SayLeUySiX0MksLioPOT+w4qdX2CmhQlDkVyWxxSkmjEoYna6tClEgecuObFIZsouYMmSeuRikrLxKFI76tDp5dGHnSNkpmEeOyQgmRdHGqUyhzUR6lWCeRIiHpbj9SilEocys4BYWBPaBLWKDVEqR875CjNFbdJJdWai+gapZakk8TlvmufKIGURkmi6x1qk8wc6vh6OiBupFoNl3aZ5v2wVY47UpBIjoSvU/HFl8kTapa+1pKpZJK42iWntR8a7QekyVzHZZrpVqWsPV2iaDp26GEU8wQBYGEjTzCJa1hRXZX0Q1MJa5QybkUujYZ0eciBNlBVKQ4qG0VvQ5TW4ku8RZHXtBYfYCGRS6O8PRhHyaTjgKSu4/QdEDCxtZbAeYlUa57AOB1AMQzIdhwKAsgMyHTwzXSIYoxQuqh7AvCcoLdmX3yxj0AfcZw5Ym/0CdFGB08H8APpBxC7oywwt5LENalrKUFqsCAl3z7QHgy7kebu7SPJWpC29kIbQHtgHtdeqxQuwqCNiUdDQxyYOxpBbFi2/K8Da5geGZkc5rg7gYnkKQp3ZyzrCSpQYTG11tU8k8js+DJScwip5iLTSZG1wSoTcmncYb7+ug1iOzBPKyk1GsjqW7DTw5jHZhQ80/pg7fWuMQ71f1AGJXn7QBpcdxgV+CzhdUqnk0TwwaxU5Yehn68N2MnhUeJuJhi3OTB3YKYjWAdXNRca+us6gO7aIol0VPaRCVyzerYKA8n/D3OgumPPNGJ13756IWYUthE6P8hIYdRZPIA0Ph12z2t9JO9oTnKI8w5PQV7kNV3bjEzylXXg6XTIQx4fSaTsqNmopoJWrq7VmxgJUrEhG28ETGHKE2phvTSKnOlCSNW2tgzKnMltTEUOTlAYTI9gUNMVD5FpOmOkMUbNylaueHaAnrIUEtYed4LeaPN0cO+aOEwAlYS1t0EpE+fmmHKw8NkpGQxKhVRf340AmN0YOOISTp5gOmQKou+WHxiS2QjQdlRphVIZpn7HldapwtrPbtuUzhzUy1X8BFtCWfN5wCEjCathUltro+VR8febuu/2MTYG/fsOxZNm63TIAM7YGqU+Vzr3kax5MkGxGEGBnMcBpkPl42Tw1Nz5/ImOdDP0TYvc99ihaze6Ltkmke7DpKTltpXq2kGt0EvoPnOR7oi2mcCVK/QUqT7QtBMl6CDmgIHWyUcUcGHznvnMbazE9Gb29V0CFcDQu25EzInufftYzE00rvQBNgbgaR/ooiHfWUww3NsLh0L5B4rcyYBA2SR4FdAHqP27qbUN9jowd/xc6a4q+o3HXOMcxEYdJdCdp/qW5OPE3PRdzVkg8+4FA6X9MhTyzWFIIIsvY6NVY/4waCsCPuYlCJ/L/uMLqnfN8cf1XdiX89PT5VXa7ff+3Rk+urx3Sx9/Ag==);lineShape=1;" vertex="1" parent="1">
                    <mxGeometry x="113.56765733454722" y="-195.27179309382745" width="117.04090170204533" height="92.18063091485874" as="geometry"/>
                </mxCell>
                <mxCell id="97" value="" style="shape=stencil(lVjLchw3DPyavaL4JnGWnf9QleVoK7LkkpXE/vv0ZIuzArjTKt/20ZghgEYD4Cnf/Xi8//5wSuHH2+vLXw//nr+8PZ7yp1NK5+fHh9fzGz6d8udTvvv68vrw5+vL389fLt+/32/I7dO3l3+2J/y82AUJeTNK4dflB+0yyv+//HHBP52fDX5Uiy/SxzE+Si0WnyTpMX7/d+KHihJ8lhwtvkvrx/gi1fo7qmRy/irNnSdLCsf4JtotPkqIx/ghORh8H/MJt+MZRIc1qJJYArK0Zg2iKMlwbFKsQRvSmYFKsTFtiBo5EpLckzVIkhkpmkQb1cqjlLqPUu0SSdoSWGZ9qFUC8SHHxSDRsObsmVHDDMNtAzht81CGFPaGIdXWQsEjMqkFHMAeqeCQhKz4O1i2lkh9KAiiLZ+s0tgbugSrLxn1zHwAEWyUcpXeSEEnKdaHDPJVYlBn1KcByMK4BG5260PiRwL7oz0SKqSSTLdFlbYaZKqEE1tqoMorSVxfdDiWmfvbBoiSewOoQRIHnUuu88ggJxphasqurFMUbuOzRJs2eEw0ZqBWrMeFEm8sqpdm+d3Eo086f4MkQgpFQLvDs0aizRcz8IRDukhkkEz81TH78BU/SNmoLhyVSvyNIXhxQV2SBOMFw2mLJBYgnY3+imc9RFc5pQRCQN3zK60YJMxVfZ2Cf0SgkfzzWYKXxl/oZITBrBeHZx0QeNeUMydQWvNbWXwgQVZGI50qgB+eoMoImv0oG+gQgoIMHh9YPJvk4vHMXzS64PBs0gQ/m/e3Mf7oDPc1npnXi7q+N5v5Ib47vDI+6CynK39Yw4C/wwpomS3nKJ59OPzg9ft7+H1WujaYwc4TZvldG5iS/GKRcQ0jcsUdxTsQE91tRlqmgjI5frtn63KkKsrGiDYpvBuM+c6jucON1R+wGpNNsSwCjejs1CRYWUTeWKNviy5iUqETps7Raid2ppVf2xTa3WDXjqMZNjvpVbq1Y9Vw0xkG90GOVJa9dFsN2ByObmad3n4hR7o+7916k0lYt1XDJg5esV0CMXFrJuI2yBuwarjBHbM/W6C2VWNZM5kPIMJwS6DynS7NHrOLTKTUyMEP7o1fWGyq5QzanDxvG+wyvRsoLaD1zghVXtiVxZhRf3fHUckb4rJ8YLtgywSE0XEJWsicxjJT3PZR6AIFrXbTCxaMxvaPOczt61CgJY3uYMmN+YddlC23Ophn2HhdfZaV3z7U5aJvTK4f4N26hXmA7UNobtHjKyFR8XqkfL/MS3x03iwcXFQ6Br1bYA4MXCWrUkWNfr8EvpPmDLoMj2dVFvy1BvBM7ILfp5FgNq8t6xzw7Ob392+iP8Ljw/Xa++v56elya/7+f39Njp8uV+z5838=);lineShape=1;" vertex="1" parent="1">
                    <mxGeometry x="154.7779965167881" y="-295.8149483051807" width="123.41200611737008" height="191.37861076278153" as="geometry"/>
                </mxCell>
                <mxCell id="98" value="&lt;h1&gt;If clicked, moved down directly to the right position without scrolling and the need for searching.&lt;/h1&gt;" style="text;html=1;strokeColor=none;fillColor=none;align=center;verticalAlign=middle;whiteSpace=wrap;rounded=0;" vertex="1" parent="1">
                    <mxGeometry x="260" y="-370" width="440" height="120" as="geometry"/>
                </mxCell>
            </root>
        </mxGraphModel>
    </diagram>
</mxfile>